<?xml version="1.0" standalone="no"?>
<svg version="1.0" xmlns="http://www.w3.org/2000/svg"
 width="774.000000pt" height="774.000000pt" viewBox="0 0 774.000000 774.000000"
 preserveAspectRatio="xMidYMid meet">
<metadata>
Created by potrace 1.14, written by Peter Selinger 2001-2017
</metadata>
<g transform="translate(0.000000,774.000000) scale(0.100000,-0.100000)"
fill="#000000" stroke="none">
<path d="M1915 4825 c0 -635 -3 -966 -10 -968 -5 -2 -344 -3 -753 -3 l-743 1
2 -195 c2 -218 14 -334 52 -492 115 -474 446 -890 861 -1083 101 -47 217 -86
306 -104 30 -6 69 -13 85 -17 65 -13 321 -13 400 1 135 23 144 25 239 55 345
111 658 372 848 708 110 195 167 359 214 617 4 22 9 581 11 1243 l4 1202 -759
0 -758 0 1 -965z"/>
<path d="M4250 3870 l0 -1921 873 4 c778 3 880 5 942 20 216 53 411 149 575
285 65 54 170 160 220 221 19 24 40 48 45 55 25 26 132 198 172 273 92 176
183 438 207 594 3 20 7 42 10 50 5 14 10 48 24 164 14 121 5 587 -13 615 -2 3
-6 26 -10 50 -18 130 -74 324 -142 490 -206 505 -622 891 -1068 991 -27 6 -59
13 -70 17 -11 3 -413 8 -892 9 l-873 4 0 -1921z"/>
</g>
</svg>
